<?xml version="1.0" encoding="UTF-8"?>
<svg id="Layer_1" xmlns="http://www.w3.org/2000/svg" viewBox="0 0 100 100">
  <defs>
    <style>
      .cls-1 {
        fill: #5dce8b;
      }

      .cls-2 {
        fill: #fff;
      }
    </style>
  </defs>
  <path class="cls-1" d="M98.36,76.66c-.67-.92-6.27,3.26-13.56,4.93-4.39,1-8.3.84-11.2.45-.28-.04-.31-.44-.04-.52,7.42-2.26,13.66-7.84,17.41-14.65,3.95-7.17,5.29-15.6,4.68-23.77-.56-7.55-2.77-15.06-7.03-21.31-4.14-6.06-10.16-10.81-16.99-13.49-11.91-4.68-25.57-2.96-37.37,1.98C19.27,16.55,5.94,28.84,2.43,44.7c-2.85,12.86,1.59,27.26,11.35,36.14,8.36,7.6,19.44,11.42,30.48,12.91,11.77,1.6,24.04.42,35.17-3.8,3.3-1.25,6.49-2.76,9.53-4.56.24-.14.48-.29.72-.44.83-.5,2.34-1.46,4.09-2.88.89-.72,1.99-1.67,3.17-2.88,1.49-1.71,1.6-2.31,1.43-2.55Z"/>
  <g>
    <path class="cls-2" d="M35.19,48.89l-2.9,2.82c-.11.11-.16.26-.14.41l.67,3.99c.06.38-.34.67-.68.49l-3.57-1.89c-.14-.07-.3-.07-.44,0l-3.58,1.87c-.34.18-.75-.11-.68-.5l.69-3.98c.03-.15-.02-.31-.13-.42l-2.89-2.83c-.28-.27-.12-.74.26-.8l4-.57c.15-.02.29-.12.35-.26l1.8-3.62c.17-.35.67-.35.84,0l1.78,3.63c.07.14.2.23.35.26l4,.59c.38.06.54.53.26.8Z"/>
    <path class="cls-2" d="M56.21,48.89l-2.9,2.82c-.11.11-.16.26-.14.41l.67,3.99c.06.38-.34.67-.68.49l-3.57-1.89c-.14-.07-.3-.07-.44,0l-3.58,1.87c-.34.18-.75-.11-.68-.5l.69-3.98c.03-.15-.02-.31-.13-.42l-2.89-2.83c-.28-.27-.12-.74.26-.8l4-.57c.15-.02.29-.12.35-.26l1.8-3.62c.17-.35.67-.35.84,0l1.78,3.63c.07.14.2.23.35.26l4,.59c.38.06.54.53.26.8Z"/>
    <path class="cls-2" d="M77.22,48.89l-2.9,2.82c-.11.11-.16.26-.14.41l.67,3.99c.06.38-.34.67-.68.49l-3.57-1.89c-.14-.07-.3-.07-.44,0l-3.58,1.87c-.34.18-.75-.11-.68-.5l.69-3.98c.03-.15-.02-.31-.13-.42l-2.89-2.83c-.28-.27-.12-.74.26-.8l4-.57c.15-.02.29-.12.35-.26l1.8-3.62c.17-.35.67-.35.84,0l1.78,3.63c.07.14.2.23.35.26l4,.59c.38.06.54.53.26.8Z"/>
  </g>
</svg>