<?xml version="1.0" encoding="UTF-8"?>
<svg id="Layer_1" xmlns="http://www.w3.org/2000/svg" xmlns:xlink="http://www.w3.org/1999/xlink" viewBox="0 0 114.92 141.4">
  <defs>
    <style>
      .cls-1 {
        fill: #ffdc8f;
      }

      .cls-2 {
        fill: #ef5050;
      }

      .cls-3 {
        fill: #ea3d3d;
      }

      .cls-4 {
        clip-path: url(#clippath-1);
      }

      .cls-5 {
        fill: #cc9200;
      }

      .cls-6 {
        clip-path: url(#clippath);
      }

      .cls-7 {
        fill: #fab907;
      }
    </style>
    <clipPath id="clippath">
      <circle class="cls-5" cx="57.46" cy="101.09" r="39.28"/>
    </clipPath>
    <clipPath id="clippath-1">
      <path class="cls-3" d="M60.51,58.8c-1.01-.07-2.02-.11-3.05-.11-8.98,0-17.31,2.81-24.18,7.59L0,0h31.22l29.3,58.8ZM83.71,0l-24.03,49.96,4.55,9.11c5.38,1.22,13.02,4.15,17.42,7.22L114.92,0h-31.22Z"/>
    </clipPath>
  </defs>
  <g>
    <g>
      <circle class="cls-5" cx="57.46" cy="101.09" r="39.28"/>
      <g class="cls-6">
        <circle class="cls-7" cx="53.99" cy="94.69" r="40.13"/>
      </g>
    </g>
    <g>
      <path class="cls-3" d="M60.51,58.8c-1.01-.07-2.02-.11-3.05-.11-8.98,0-17.31,2.81-24.18,7.59L0,0h31.22l29.3,58.8ZM83.71,0l-24.03,49.96,4.55,9.11c5.38,1.22,13.02,4.15,17.42,7.22L114.92,0h-31.22Z"/>
      <g class="cls-4">
        <rect class="cls-2" x="-27.06" y="-30.46" width="175.14" height="60.92"/>
      </g>
    </g>
  </g>
  <path class="cls-1" d="M58.97,76.77l6.43,13.02c.25.5.72.84,1.27.92l14.37,2.09c1.38.2,1.93,1.9.93,2.87l-10.4,10.14c-.4.39-.58.94-.48,1.49l2.46,14.31c.24,1.38-1.21,2.43-2.44,1.78l-12.85-6.76c-.49-.26-1.08-.26-1.57,0l-12.85,6.76c-1.24.65-2.68-.4-2.44-1.78l2.46-14.31c.09-.55-.09-1.1-.48-1.49l-10.4-10.14c-1-.97-.45-2.67.93-2.87l14.37-2.09c.55-.08,1.02-.42,1.27-.92l6.43-13.02c.62-1.25,2.4-1.25,3.02,0Z"/>
</svg>