<?xml version="1.0" encoding="UTF-8"?>
<svg id="Layer_1" xmlns="http://www.w3.org/2000/svg" xmlns:xlink="http://www.w3.org/1999/xlink" viewBox="0 0 219.47 39.99">
  <defs>
    <style>
      .cls-1 {
        fill: #ef5050;
      }

      .cls-2 {
        fill: #ea3d3d;
      }

      .cls-3 {
        fill: #191919;
      }

      .cls-4 {
        clip-path: url(#clippath);
      }

      .cls-5 {
        fill: #fab907;
      }
    </style>
    <clipPath id="clippath">
      <path class="cls-2" d="M-74.81,58.8c-1.01-.07-2.02-.11-3.05-.11-8.98,0-17.31,2.81-24.18,7.59L-135.32,0h31.22l29.3,58.8ZM-51.61,0l-24.03,49.96,4.55,9.11c5.38,1.22,13.02,4.15,17.42,7.22L-20.4,0h-31.22Z"/>
    </clipPath>
  </defs>
  <g>
    <path class="cls-2" d="M-74.81,58.8c-1.01-.07-2.02-.11-3.05-.11-8.98,0-17.31,2.81-24.18,7.59L-135.32,0h31.22l29.3,58.8ZM-51.61,0l-24.03,49.96,4.55,9.11c5.38,1.22,13.02,4.15,17.42,7.22L-20.4,0h-31.22Z"/>
    <g class="cls-4">
      <rect class="cls-1" x="-162.38" y="-30.46" width="175.14" height="60.92"/>
    </g>
  </g>
  <g>
    <rect class="cls-5" x="1" y=".81" width="217.47" height="38.37" rx="5.87" ry="5.87"/>
    <g>
      <g>
        <path class="cls-3" d="M193.95,28.04c-.95,0-2.11-.06-3.56-.2-.78-.07-1.56-.16-2.33-.26-.32-.04-.65-.09-.97-.14-.61-.1-1.19-.19-1.78-.22-.13,0-.26,0-.39,0h-.27c-1.33,0-2.41-1.08-2.41-2.41v-5.92c0-1.33,1.08-2.41,2.41-2.41.34.01.65-.03.94-.12.56-.17.96-.52,2.37-2.34.39-.5.77-1,1.13-1.52.26-.38.56-.82.71-1.28.14-.45.17-.96.19-1.45v-.1c0-.24.02-.56.22-.89.21-.33.55-.57.94-.65.76-.16,1.34.39,1.59.63.64.61,1,1.48,1.08,2.59.04.62-.04,1.25-.24,1.86-.08.26-.2.5-.32.74-.09.18-.17.35-.24.54-.18.51-.19,1.01-.09,1.18.08,0,.25.02.59.03.61.02,1.09.01,1.37,0,.32,0,.78,0,1.67.02,1.2.02,1.5.02,1.88.26.57.36.94,1.03.96,1.74.03,1.05-.72,1.7-.88,1.81-.54.42-1.09.43-2.74.42-.59,0-1.11-.01-1.53-.02-.36,0-.64-.31-.63-.67s.3-.63.67-.63c.41,0,.93.02,1.51.02,1.48,0,1.77-.02,1.93-.14.01-.01.39-.31.37-.75,0-.27-.15-.54-.36-.68-.11-.04-.67-.05-1.12-.06-.96-.01-1.41-.02-1.67-.02-.35,0-.85.01-1.49,0-.8-.03-1.05-.06-1.31-.26-.76-.59-.69-1.78-.37-2.68.08-.23.19-.45.29-.67.09-.19.19-.38.25-.58.15-.45.21-.91.17-1.36-.02-.29-.08-1.16-.68-1.74-.22-.21-.37-.32-.43-.3-.04,0-.08.03-.1.07-.02.03-.02.15-.02.23v.12c-.03.55-.06,1.17-.25,1.79-.2.64-.56,1.18-.88,1.63-.37.54-.77,1.05-1.17,1.57-1.44,1.86-2.05,2.48-3.01,2.79-.43.13-.88.19-1.34.18-.59,0-1.09.5-1.09,1.11v5.92c0,.61.5,1.11,1.11,1.11h.24c.16,0,.32-.01.48,0,.65.03,1.3.13,1.92.23.31.05.62.1.93.14.76.1,1.53.18,2.29.25,3.8.36,6.01.22,6.56-.43.2-.23.2-.61.15-.89-.19.04-.44.08-.78.12-.42.05-1.23.12-1.91,0-.35-.06-.59-.4-.52-.76.06-.35.4-.58.76-.52.37.07.94.06,1.52,0,.35-.04.6-.09.78-.13.35-.07.88-.18,1.18.35.34.59.52,1.85-.19,2.68-.49.57-1.38,1.08-4.11,1.08Z"/>
        <path class="cls-3" d="M195.33,22.77c-.29,0-.59,0-.88-.01-.36,0-.64-.31-.63-.67,0-.36.32-.63.67-.63.51.01,1.02.02,1.53,0h.21c.39,0,.77-.02,1.1-.1.22-.06.74-.24.85-.76.09-.44-.17-.89-.44-1.16-.25-.25-.25-.67,0-.92.25-.25.67-.25.92,0,.66.67.96,1.54.8,2.34-.18.86-.85,1.52-1.8,1.76-.48.12-.94.13-1.4.13h-.2c-.24,0-.47.01-.71.01Z"/>
        <path class="cls-3" d="M197.48,25.17c-.29,0-.56-.2-.63-.49-.09-.35.13-.7.47-.79.17-.04.33-.21.36-.26.03-.04.13-.24.17-.53.06-.48-.27-.88-.31-.93-.23-.27-.2-.68.07-.92.27-.23.68-.2.92.07.17.2.73.95.61,1.93-.08.64-.33,1.02-.41,1.13-.07.1-.46.59-1.09.75-.05.01-.11.02-.16.02Z"/>
      </g>
      <g>
        <path class="cls-3" d="M39.51,15.29l-4.02,12.12h-2.39l-3-8.97-3.05,8.97h-2.41l-4.02-12.12h2.34l3.01,9.21,3.13-9.21h2.08l3.07,9.27,3.1-9.27h2.15Z"/>
        <path class="cls-3" d="M49.54,23.49h-7.26c.26,1.35,1.38,2.22,3,2.22,1.04,0,1.85-.33,2.51-1l1.16,1.33c-.83.99-2.13,1.51-3.72,1.51-3.1,0-5.11-1.99-5.11-4.75s2.03-4.73,4.78-4.73,4.68,1.89,4.68,4.78c0,.17-.02.43-.04.64ZM42.27,22.05h5.25c-.17-1.33-1.19-2.25-2.61-2.25s-2.42.9-2.63,2.25Z"/>
        <path class="cls-3" d="M65.45,27.42l-2.48-3.55c-.16.02-.31.02-.47.02h-2.74v3.53h-2.25v-12.12h4.99c3.19,0,5.16,1.63,5.16,4.31,0,1.83-.93,3.19-2.58,3.83l2.79,3.98h-2.42ZM62.4,17.2h-2.63v4.83h2.63c1.97,0,3-.9,3-2.42s-1.02-2.41-3-2.41Z"/>
        <path class="cls-3" d="M79.06,23.49h-7.26c.26,1.35,1.38,2.22,3,2.22,1.04,0,1.85-.33,2.51-1l1.16,1.33c-.83.99-2.13,1.51-3.72,1.51-3.1,0-5.11-1.99-5.11-4.75s2.03-4.73,4.78-4.73,4.68,1.89,4.68,4.78c0,.17-.02.43-.04.64ZM71.79,22.05h5.25c-.17-1.33-1.19-2.25-2.61-2.25s-2.42.9-2.63,2.25Z"/>
        <path class="cls-3" d="M80.85,22.79c0-2.77,2.08-4.73,5-4.73,1.8,0,3.24.75,3.95,2.15l-1.66.97c-.55-.88-1.39-1.28-2.3-1.28-1.59,0-2.81,1.11-2.81,2.89s1.21,2.89,2.81,2.89c.92,0,1.75-.4,2.3-1.28l1.66.97c-.71,1.39-2.15,2.17-3.95,2.17-2.93,0-5-1.97-5-4.75Z"/>
        <path class="cls-3" d="M91.21,22.79c0-2.77,2.08-4.73,4.92-4.73s4.94,1.96,4.94,4.73-2.06,4.75-4.94,4.75-4.92-1.97-4.92-4.75ZM98.88,22.79c0-1.77-1.18-2.89-2.75-2.89s-2.74,1.13-2.74,2.89,1.18,2.89,2.74,2.89,2.75-1.12,2.75-2.89Z"/>
        <path class="cls-3" d="M119.04,22.12v5.3h-2.17v-5.02c0-1.65-.76-2.44-2.08-2.44-1.42,0-2.41.94-2.41,2.77v4.69h-2.17v-5.02c0-1.65-.76-2.44-2.08-2.44-1.44,0-2.41.94-2.41,2.77v4.69h-2.17v-9.25h2.06v1.18c.69-.83,1.77-1.28,3.03-1.28,1.35,0,2.48.5,3.12,1.54.75-.95,1.99-1.54,3.46-1.54,2.23,0,3.79,1.26,3.79,4.05Z"/>
        <path class="cls-3" d="M137.71,22.12v5.3h-2.17v-5.02c0-1.65-.76-2.44-2.08-2.44-1.42,0-2.41.94-2.41,2.77v4.69h-2.17v-5.02c0-1.65-.76-2.44-2.08-2.44-1.44,0-2.41.94-2.41,2.77v4.69h-2.17v-9.25h2.06v1.18c.69-.83,1.77-1.28,3.03-1.28,1.35,0,2.48.5,3.12,1.54.75-.95,1.99-1.54,3.46-1.54,2.23,0,3.79,1.26,3.79,4.05Z"/>
        <path class="cls-3" d="M149.67,23.49h-7.26c.26,1.35,1.38,2.22,3,2.22,1.04,0,1.85-.33,2.51-1l1.16,1.33c-.83.99-2.13,1.51-3.72,1.51-3.1,0-5.11-1.99-5.11-4.75s2.03-4.73,4.78-4.73,4.68,1.89,4.68,4.78c0,.17-.02.43-.04.64ZM142.39,22.05h5.25c-.17-1.33-1.19-2.25-2.61-2.25s-2.42.9-2.63,2.25Z"/>
        <path class="cls-3" d="M161.32,22.12v5.3h-2.16v-5.02c0-1.65-.81-2.44-2.2-2.44-1.54,0-2.58.94-2.58,2.79v4.68h-2.17v-9.25h2.06v1.19c.71-.85,1.83-1.3,3.19-1.3,2.22,0,3.86,1.26,3.86,4.05Z"/>
        <path class="cls-3" d="M173.66,14.57v12.85h-2.08v-1.2c-.73.88-1.8,1.32-3.07,1.32-2.68,0-4.68-1.87-4.68-4.75s1.99-4.73,4.68-4.73c1.2,0,2.25.4,2.98,1.25v-4.75h2.17ZM171.53,22.79c0-1.77-1.2-2.89-2.75-2.89s-2.75,1.13-2.75,2.89,1.2,2.89,2.75,2.89,2.75-1.12,2.75-2.89Z"/>
      </g>
    </g>
  </g>
</svg>